HIERARCHY
ROOT Hips
{
  OFFSET 0 0 0
  CHANNELS 6 Xposition Yposition Zposition Zrotation Yrotation Xrotation
  JOINT LeftThigh
  {
    OFFSET 8.409438 0 -5.917753
    CHANNELS 3 Zrotation Yrotation Xrotation
    JOINT LeftLeg
    {
      OFFSET 0 0 -42.358652
      CHANNELS 3 Zrotation Yrotation Xrotation
      JOINT LeftFoot
      {
        OFFSET 0 0 -39.357303
        CHANNELS 3 Zrotation Yrotation Xrotation
      }
    }
  }
  JOINT RightThigh
  {
    OFFSET -8.409438 0 -5.917753
    CHANNELS 3 Zrotation Yrotation Xrotation
    JOINT RightLeg
    {
      OFFSET 0 0 -42.358652
      CHANNELS 3 Zrotation Yrotation Xrotation
      JOINT RightFoot
      {
        OFFSET 0 0 -39.357303
        CHANNELS 3 Zrotation Yrotation Xrotation
      }
    }
  }
  JOINT SpineLow
  {
    OFFSET 0 0 4.719101
    CHANNELS 3 Zrotation Yrotation Xrotation
    JOINT SpineMid
    {
      OFFSET 0 0 12.899191
      CHANNELS 3 Zrotation Yrotation Xrotation
      JOINT Chest
      {
        OFFSET 0 0 12.899191
        CHANNELS 3 Zrotation Yrotation Xrotation
        JOINT LeftShoulder
        {
          OFFSET 7.550562 1.41573 9.438202
          CHANNELS 3 Zrotation Yrotation Xrotation
          JOINT LeftArm
          {
            OFFSET 9.155056 0 4.247191
            CHANNELS 3 Zrotation Yrotation Xrotation
            JOINT LeftForearm
            {
              OFFSET 0 0 25.771955
              CHANNELS 3 Zrotation Yrotation Xrotation
              JOINT LeftHand
              {
                OFFSET 0 0 25.197169
                CHANNELS 3 Zrotation Yrotation Xrotation
              }
            }
          }
        }
        JOINT RightShoulder
        {
          OFFSET -7.550562 1.41573 9.438202
          CHANNELS 3 Zrotation Yrotation Xrotation
          JOINT RightArm
          {
            OFFSET -9.155056 0 4.247191
            CHANNELS 3 Zrotation Yrotation Xrotation
            JOINT RightForearm
            {
              OFFSET 0 0 -25.771955
              CHANNELS 3 Zrotation Yrotation Xrotation
              JOINT RightHand
              {
                OFFSET 0 0 -25.197169
                CHANNELS 3 Zrotation Yrotation Xrotation
              }
            }
          }
        }
        JOINT Neck
        {
          OFFSET 0 0 15.101124
          CHANNELS 3 Zrotation Yrotation Xrotation
          JOINT Head
          {
            OFFSET 0 0 11.325843
            CHANNELS 3 Zrotation Yrotation Xrotation
            End Site
            {
              OFFSET 0 0 14.157303
            }
          }
        }
      }
    }
  }
}
MOTION
Frames: 10
Frame Time: 0.0
0.0  93.25843  0.0  0.975719  -38.534068  -96.762308  31.763574  -14.841161  -33.120846  -1.054366  3.078057  39.107216  7.24291  0.148084  4.75531  -26.249812  27.901432  -11.620913  -1.255572  11.172826  21.961696  -4.069587  2.235946  3.461925  5.29925  0.346069  1.620861  14.50105  0.586393  4.481741  14.50105  0.586393  4.481741  -26.82702  6.306313  0.304622  -154.129686  68.209468  -85.352451  -46.977161  1.860904  71.427282  69.396023  -11.825045  -0.507243  -8.355033  -15.650834  14.784803  122.058205  22.882486  40.714002  -10.508987  -19.89867  -123.846101  63.249087  -3.794952  -19.607083  4.916503  1.261239  3.069802  3.681003  0.970728  2.292287  
0.0  93.25843  0.0  0.020978  -39.524911  -95.702622  31.975728  -16.528256  -35.368774  -0.600461  3.45871  40.706802  7.62202  0.137521  4.96998  -23.618922  26.801198  -10.437723  -5.366735  12.130151  21.777403  -2.687466  1.375149  2.045024  5.197425  0.312146  1.532651  14.220147  0.520089  4.234093  14.220148  0.520089  4.234093  -26.67976  6.277573  0.356836  -150.01089  68.575232  -82.007373  -47.211216  1.938093  71.704883  69.378682  -12.116972  -0.350423  -8.187079  -15.788293  14.964134  122.186724  23.020333  41.464728  -9.753759  -20.106249  -124.189101  62.927237  -3.904081  -19.141214  5.727594  1.181797  2.672916  4.290472  0.911513  1.993746  
0.0  93.25843  0.0  -0.70598  -40.696766  -94.927686  32.333318  -18.163057  -37.341244  -0.078526  3.756411  42.226349  7.859788  0.144937  5.01738  -21.748355  26.467819  -9.618696  -8.708513  12.023746  21.14571  -1.637587  0.558241  1.174637  5.134979  0.310442  1.472888  14.049166  0.532152  4.070956  14.049165  0.532152  4.070956  -26.684054  6.544212  0.407707  -144.717667  69.204937  -77.564179  -47.197171  1.876472  71.989953  69.426547  -12.260537  -0.335635  -8.076455  -15.982218  15.190258  122.288625  23.164332  42.123005  -9.267675  -20.321661  -124.277468  62.649896  -3.946795  -19.054304  6.606865  1.086486  2.383629  4.950852  0.840765  1.776167  
0.0  93.25843  0.0  -1.31713  -41.848599  -94.155285  32.931343  -19.46852  -39.157411  0.336839  3.875019  43.48439  8.055186  0.112273  5.122716  -21.928007  25.994043  -9.94857  -8.809478  10.501533  21.090693  -0.913381  0.757729  1.206968  5.114782  0.361849  1.388877  13.996715  0.690877  3.853292  13.996714  0.690877  3.853292  -26.928332  6.914052  0.696785  -138.221674  69.77  -71.963646  -46.963246  1.784305  72.270673  69.498828  -12.279585  -0.329058  -8.283441  -16.378375  15.57868  122.434853  23.32622  42.679687  -8.857112  -20.509223  -124.253284  62.632759  -3.93769  -19.040936  7.372957  0.820263  2.183257  5.526777  0.641658  1.627799  
0.0  93.25843  0.0  -1.925384  -42.804509  -93.207883  33.624479  -20.489741  -40.963765  0.586213  3.933226  44.473839  8.190768  0.133091  5.209616  -23.603287  25.062535  -11.222194  -9.495884  9.899106  22.014811  5.29002  2.428038  1.425193  5.054616  0.423478  1.291378  13.835155  0.882322  3.600599  13.835154  0.882322  3.6006  -27.357497  7.372543  0.671662  -131.570209  70.251365  -66.358549  -46.684887  1.546177  72.386085  69.522708  -12.235416  -0.260761  -8.366968  -16.77569  15.840769  122.574816  23.389479  43.154802  -8.532634  -20.614493  -124.152578  62.864517  -3.933586  -18.894225  8.209059  0.603005  2.090687  6.154761  0.480448  1.560234  
0.0  93.25843  0.0  -2.465863  -43.489062  -92.409436  34.088373  -21.463018  -42.531579  0.868001  3.898252  45.328345  8.349804  0.137408  5.362268  -26.117914  22.967369  -12.856954  -4.28161  11.16717  23.752162  3.09498  0.956607  1.595773  4.914963  0.451457  1.226109  13.454413  0.979372  3.427282  13.454413  0.979372  3.427282  -27.709024  8.292229  0.15924  -125.249642  70.779169  -61.189285  -46.380944  1.244208  72.410439  69.419502  -12.143088  0.043456  -8.094283  -17.17099  15.806826  122.607327  23.079873  43.651627  -8.406709  -20.601563  -123.93142  63.222236  -3.95542  -18.696723  9.239431  0.616317  1.982836  6.927594  0.492358  1.478194  
0.0  93.25843  0.0  -2.808577  -43.945944  -92.039762  34.226807  -22.276199  -43.563493  1.102564  3.705316  45.985876  8.105731  0.19319  5.341684  -24.492044  21.074212  -14.481499  -3.894511  14.010015  27.634029  2.1467  -0.151018  0.515583  4.818244  0.507273  1.257667  13.193689  1.129989  3.523155  13.19369  1.129989  3.523155  -28.111012  8.524329  0.034971  -120.830604  70.408581  -57.483228  -46.12555  0.802882  72.441104  69.005094  -12.052483  0.498297  -8.283016  -17.722605  15.923785  122.817126  22.983477  44.287296  -8.411194  -20.563655  -123.572285  63.688476  -3.987068  -18.349412  9.991232  0.582875  1.659865  7.491843  0.464447  1.235749  
0.0  93.25843  0.0  -2.91502  -44.092136  -92.0767  34.031339  -22.753835  -43.945133  1.010064  3.458584  46.279584  7.724955  0.240036  5.328718  -22.053808  20.082438  -14.628239  -2.920969  13.850814  30.96315  1.20172  0.811578  -0.098033  4.654726  0.547372  1.346106  12.750555  1.23091  3.769296  12.750556  1.23091  3.769296  -27.98423  8.341608  0.882423  -118.753979  68.717671  -55.850956  -45.850976  0.541856  72.567209  68.456702  -12.083685  0.801073  -8.227306  -17.838153  16.191712  123.01114  23.095576  44.724351  -8.489967  -20.478583  -123.181502  64.049905  -4.108147  -17.772564  10.736072  0.562287  1.333368  8.050808  0.445308  0.990501  
0.0  93.25843  0.0  -3.016038  -43.537317  -92.005431  33.421731  -22.918287  -44.188828  0.416745  3.43826  46.205897  7.484429  0.346431  5.262989  -22.729816  19.235818  -16.047021  -1.954568  12.888589  32.422108  1.694838  1.847033  0.575166  4.356707  0.515681  1.392424  11.934918  1.153541  3.884933  11.934918  1.153541  3.884933  -27.513659  8.480948  1.963364  -118.52139  66.730159  -56.09868  -45.667318  0.806887  72.715921  68.097489  -12.278313  1.035638  -8.02421  -17.387067  16.52791  123.101421  23.129543  44.979902  -8.631176  -20.307154  -122.940184  64.173497  -4.400524  -17.173031  11.494344  0.686181  1.137297  8.619415  0.536257  0.840407  
0.0  93.25843  0.0  -3.350152  -42.930089  -91.578771  33.192829  -23.123363  -44.713577  -0.396491  3.715828  45.943513  7.314005  0.464963  5.207163  -24.798544  17.999044  -17.225693  0.748356  13.036051  33.978718  1.172728  1.275749  0.310377  4.072518  0.443382  1.404646  11.154013  0.971504  3.90174  11.154013  0.971504  3.90174  -27.014284  8.738226  2.555869  -118.953123  65.419846  -56.912976  -45.881535  1.281231  72.733747  68.07555  -12.584495  1.296552  -7.804676  -16.862891  16.5429  122.981758  23.006622  45.106766  -8.998264  -19.954973  -122.809337  64.014902  -4.74388  -16.780596  12.136291  0.894393  0.888453  9.100757  0.688765  0.648863  
